<?xml version="1.0" encoding="utf-8"?>
<!-- Generator: Adobe Illustrator 21.0.0, SVG Export Plug-In . SVG Version: 6.00 Build 0)  -->
<svg version="1.1" id="Layer_1" xmlns="http://www.w3.org/2000/svg" xmlns:xlink="http://www.w3.org/1999/xlink" x="0px" y="0px"
	 viewBox="0 0 16 16" style="enable-background:new 0 0 16 16;" xml:space="preserve">
<g id="Mask">
	<path id="path-1_1_" d="M10.3,3c0-1.1-0.9-2-1.9-2C7.4,1,6.5,1.9,6.5,3h-1v1h5.8V3H10.3z M7.5,3c0-0.6,0.4-1,1-1c0.5,0,1,0.4,1,1
		H7.5z M12.8,3c0.6,0,1,0.5,1,1.1v9.7c0,0.6-0.5,1.1-1,1.1H4c-0.6,0-1-0.5-1-1.1V4.2C3,3.5,3.5,3,4,3h0.8v1H4.4
		C4.1,4,3.9,4.3,3.9,4.6v8.8c0,0.3,0.2,0.6,0.5,0.6h8c0.3,0,0.5-0.3,0.5-0.6V4.6c0-0.3-0.2-0.6-0.5-0.6H12V3H12.8z M5.5,12
		c-0.3,0-0.5-0.2-0.5-0.5c0-0.3,0.2-0.5,0.5-0.5h5.8c0.3,0,0.5,0.2,0.5,0.5c0,0.3-0.2,0.5-0.5,0.5H5.5z M5.5,9.5
		C5.3,9.5,5.1,9.3,5.1,9c0-0.3,0.2-0.5,0.5-0.5h5.8c0.3,0,0.5,0.2,0.5,0.5c0,0.3-0.2,0.5-0.5,0.5H5.5z M5.5,7C5.3,7,5.1,6.8,5.1,6.5
		C5.1,6.2,5.3,6,5.5,6h5.8c0.3,0,0.5,0.2,0.5,0.5c0,0.3-0.2,0.5-0.5,0.5H5.5z"/>
</g>
</svg>
