<?xml version="1.0" encoding="utf-8"?>
<!-- Generator: Adobe Illustrator 21.0.0, SVG Export Plug-In . SVG Version: 6.00 Build 0)  -->
<svg version="1.1" id="Layer_1" xmlns="http://www.w3.org/2000/svg" xmlns:xlink="http://www.w3.org/1999/xlink" x="0px" y="0px"
	 viewBox="0 0 16 16" style="enable-background:new 0 0 16 16;" xml:space="preserve">
<g id="Mask">
	<path id="path-1_1_" d="M8,4C5.4,4,3.4,5.3,1,7.4c2.1,1.8,3.9,3.4,7,3.4c3.1,0,5.4-2,7-3.4C13.4,5.9,11.1,4,8,4L8,4z M8,9.9
		c-1.3,0-2.4-1.1-2.4-2.4C5.6,6.1,6.7,5,8,5s2.4,1.1,2.4,2.4C10.4,8.8,9.3,9.9,8,9.9z M8,6.6C8,6.4,8.1,6.2,8.2,6C8.1,6,8.1,6,8,6
		C7.2,6,6.6,6.6,6.6,7.4S7.2,8.9,8,8.9s1.4-0.6,1.4-1.4c0-0.1,0-0.1,0-0.2C9.2,7.4,9.1,7.4,8.9,7.4C8.4,7.4,8,7,8,6.6z"/>
</g>
</svg>
