<?xml version="1.0" encoding="utf-8"?>
<!-- Generator: Adobe Illustrator 21.0.0, SVG Export Plug-In . SVG Version: 6.00 Build 0)  -->
<svg version="1.1" id="Layer_1" xmlns="http://www.w3.org/2000/svg" xmlns:xlink="http://www.w3.org/1999/xlink" x="0px" y="0px"
	 viewBox="0 0 16 16" style="enable-background:new 0 0 16 16;" xml:space="preserve">
<g id="Mask">
	<path id="path-1_1_" d="M12.1,13.8V6.2l0.6-0.6v8.8H1V3.3h9.3L9.8,3.9H1.6v9.9H12.1z M7.3,9l6.2-6.2L14,3.2L7.4,9.8H6.2V8.6L12.8,2
		l0.4,0.4L7,8.7L7.3,9z M14.9,1.6C14.9,1.7,15,1.8,15,2c0,0.1-0.1,0.3-0.1,0.4l-0.4,0.4L13.7,2l-0.4-0.4l0,0l0.4-0.4
		C13.8,1.1,13.9,1,14,1c0.1,0,0.3,0.1,0.4,0.1L14.9,1.6z"/>
</g>
</svg>
