<?xml version="1.0" encoding="utf-8"?>
<!-- Generator: Adobe Illustrator 21.0.0, SVG Export Plug-In . SVG Version: 6.00 Build 0)  -->
<svg version="1.1" id="Layer_1" xmlns="http://www.w3.org/2000/svg" xmlns:xlink="http://www.w3.org/1999/xlink" x="0px" y="0px"
	 viewBox="0 0 16 16" style="enable-background:new 0 0 16 16;" xml:space="preserve">
<g id="Mask">
	<path id="path-1_1_" d="M14.6,5.3l-4.7,4.7l-3.4,1.3l1.3-3.4l4.7-4.7c0.5-0.5,1.2-0.5,1.7,0l0.4,0.4C15.1,4.1,15.1,4.9,14.6,5.3z
		 M7.5,10.3l2.1-0.8l0.1-0.1L8.4,8.1L8.3,8.2L7.5,10.3z M8.8,7.7L10.1,9l3.2-3.2l-1.3-1.3L8.8,7.7z M14.2,4l-0.4-0.4
		c-0.2-0.2-0.6-0.2-0.9,0L12.5,4l1.3,1.3l0.4-0.4C14.4,4.7,14.4,4.3,14.2,4z M3.1,11.6V11h2.7l-0.2,0.6H3.1z M6.3,9.8H3.1V9.2h3.4
		L6.3,9.8z M3.1,5.6h3v0.6h-3V5.6z M6.2,8h-3V7.4h3V8z M8.3,2.1v2.2C8.3,4.7,8.6,5,8.9,5h0.9L9.2,5.6H8.9C8.2,5.6,7.7,5,7.7,4.4V1.6
		H2.2c-0.3,0-0.6,0.3-0.6,0.6v11.5c0,0.3,0.3,0.6,0.6,0.6h8.5c0.3,0,0.6-0.3,0.6-0.6V9.5l0.6-0.6v4.9c0,0.7-0.5,1.2-1.2,1.2H2.2
		C1.6,15,1,14.4,1,13.8V2.2C1,1.6,1.6,1,2.2,1c0,0,2.3,0,4.6,0c0.1,0,0.1,0,0.2,0c0.1,0,0.2,0,0.3,0h0.8l2.7,3l-0.4,0.4L8.3,2.1z"/>
</g>
</svg>
